<?xml version="1.0" standalone="no"?><!DOCTYPE svg PUBLIC "-//W3C//DTD SVG 1.1//EN" "http://www.w3.org/Graphics/SVG/1.1/DTD/svg11.dtd"><svg t="1574232773580" class="icon" viewBox="0 0 1024 1024" version="1.1" xmlns="http://www.w3.org/2000/svg" p-id="15650" data-spm-anchor-id="a313x.7781069.0.i68" xmlns:xlink="http://www.w3.org/1999/xlink" width="200" height="200"><defs><style type="text/css"></style></defs><path d="M681.813333 371.2H337.92c-26.453333 0-48.64-22.186667-48.64-48.64v-128c0-26.453333 22.186667-48.64 48.64-48.64h58.88c7.68-56.32 55.466667-98.986667 113.493333-98.986667 58.026667 0 105.813333 42.666667 113.493334 98.986667H682.666667c26.453333 0 48.64 22.186667 48.64 48.64v128c-0.853333 26.453333-22.186667 48.64-49.493334 48.64zM337.92 192.853333c-0.853333 0-1.706667 0.853333-1.706667 1.706667v128c0 0.853333 0.853333 1.706667 1.706667 1.706667h343.893333c0.853333 0 1.706667-0.853333 1.706667-1.706667v-128c0-0.853333-0.853333-1.706667-1.706667-1.706667H575.146667l2.56-25.6v-5.973333c0-37.546667-29.866667-67.413333-67.413334-67.413333s-67.413333 29.866667-67.413333 67.413333v5.973333l2.56 25.6H337.92zM310.613333 785.066667H708.266667v46.933333H310.613333V785.066667z m0-150.186667H708.266667V682.666667H310.613333v-47.786667z m0-149.333333H708.266667v46.933333H310.613333v-46.933333z m503.466667 504.32H203.093333c-32.426667 0-58.88-26.453333-58.88-58.88V294.4c0-32.426667 26.453333-58.88 58.88-58.88h83.626667v-40.96c0-26.453333 22.186667-48.64 48.64-48.64h58.88c7.68-56.32 55.466667-98.986667 113.493333-98.986667S614.4 90.453333 621.226667 145.92h58.88c26.453333 0 48.64 22.186667 48.64 48.64v40.96h83.626666c32.426667 0 58.88 26.453333 58.88 58.88v636.586667c1.706667 32.426667-24.746667 58.88-57.173333 58.88zM203.093333 282.453333c-6.826667 0-11.946667 5.12-11.946666 11.946667v636.586667c0 6.826667 5.12 11.946667 11.946666 11.946666h610.133334c6.826667 0 11.946667-5.12 11.946666-11.946666V294.4c0-6.826667-5.12-11.946667-11.946666-11.946667H682.666667V194.56c0-0.853333-0.853333-1.706667-1.706667-1.706667H574.293333l2.56-25.6v-5.973333c0-37.546667-30.72-67.413333-67.413333-67.413333s-67.413333 30.72-67.413333 67.413333v5.973333l2.56 25.6H336.213333c-0.853333 0-1.706667 0.853333-1.706666 1.706667v87.893333H203.093333z" p-id="15651" fill="#329cd3"></path></svg>