<?xml version="1.0" standalone="no"?><!DOCTYPE svg PUBLIC "-//W3C//DTD SVG 1.1//EN" "http://www.w3.org/Graphics/SVG/1.1/DTD/svg11.dtd"><svg t="1574232145953" class="icon" viewBox="0 0 1024 1024" version="1.1" xmlns="http://www.w3.org/2000/svg" p-id="15055" xmlns:xlink="http://www.w3.org/1999/xlink" width="200" height="200"><defs><style type="text/css"></style></defs><path d="M435.4048 946.01216H112.12288C50.2784 946.01216 0 896.94208 0 836.62848V139.50976C0 79.1296 50.30912 30.06976 112.12288 30.06976h668.25216c61.81376 0 112.12288 49.05984 112.12288 109.44v226.30912h-58.25024V139.50976c0-28.99968-24.12544-52.62848-53.87264-52.62848H112.12288c-29.7216 0-53.90336 23.6288-53.90336 52.62848v697.12384c0 28.93824 24.18688 52.56192 53.90336 52.56192H435.4048v56.81664z" p-id="15056" data-spm-anchor-id="a313x.7781069.0.i64" class="" fill="#329cd3"></path><path d="M146.71872 295.12704h578.2784v56.81664H146.71872V295.12704z m0 148.56704h409.65632v56.81664H146.71872V443.69408z m0 168.74496h339.62496v56.82176H146.71872v-56.82176z m820.46976 172.31872h-58.37824l-86.93248-108.4416c37.56544-19.9424 63.37536-58.31168 63.37536-102.8096 0-64.8192-54.00064-117.504-120.43776-117.504-66.43712 0-120.43264 52.6848-120.43264 117.504 0 44.49792 25.87648 82.87232 63.37536 102.8096l-86.87616 108.4416h-58.37312c-31.34464 0-56.81152 24.86784-56.81152 55.36768v94.49984c0 30.56128 25.46688 55.43936 56.81152 55.43936h404.75136c31.25248 0 56.75008-24.87808 56.75008-55.43936v-94.49984c-0.01024-30.49472-25.50784-55.36768-56.82176-55.36768z m-202.37824-271.93856c34.31424 0 62.18752 27.19232 62.18752 60.69248 0 33.42848-27.87328 60.68224-62.18752 60.68224-34.30912 0-62.18752-27.24864-62.18752-60.68224 0-33.50016 27.8784-60.69248 62.18752-60.69248z m0 184.4992l70.0672 87.43936h-140.12416l70.05696-87.43936z m200.93952 235.93984l-401.87392 1.42848-1.37728-93.12256 403.2512-1.43872v93.1328z" p-id="15057" data-spm-anchor-id="a313x.7781069.0.i63" class="" fill="#329cd3"></path></svg>