<?xml version="1.0" standalone="no"?><!DOCTYPE svg PUBLIC "-//W3C//DTD SVG 1.1//EN" "http://www.w3.org/Graphics/SVG/1.1/DTD/svg11.dtd"><svg t="1574232077674" class="icon" viewBox="0 0 1024 1024" version="1.1" xmlns="http://www.w3.org/2000/svg" p-id="14235" data-spm-anchor-id="a313x.7781069.0.i58" xmlns:xlink="http://www.w3.org/1999/xlink" width="200" height="200"><defs><style type="text/css"></style></defs><path d="M604.8 692.8a218.88 218.88 0 0 1 72.96-131.2 247.36 247.36 0 1 0-331.52 0 218.88 218.88 0 0 1 72.96 131.2H24v200.64h976v-200.64z m-276.16-314.56a183.36 183.36 0 1 1 306.24 136c-5.44 4.8-10.24 9.92-15.04 15.04h-215.68c-4.8-5.12-9.92-9.92-15.04-15.04a183.36 183.36 0 0 1-60.48-136.32z m123.52 214.72h120a263.68 263.68 0 0 0-32 99.84h-56.32a263.36 263.36 0 0 0-31.68-100.16z m483.84 236.48H88v-72.64h848z" p-id="14236" data-spm-anchor-id="a313x.7781069.0.i59" class="selected" fill="#329cd3"></path></svg>