<?xml version="1.0" standalone="no"?><!DOCTYPE svg PUBLIC "-//W3C//DTD SVG 1.1//EN" "http://www.w3.org/Graphics/SVG/1.1/DTD/svg11.dtd"><svg t="1574231277820" class="icon" viewBox="0 0 1024 1024" version="1.1" xmlns="http://www.w3.org/2000/svg" p-id="11611" data-spm-anchor-id="a313x.7781069.0.i41" xmlns:xlink="http://www.w3.org/1999/xlink" width="200" height="200"><defs><style type="text/css"></style></defs><path d="M115.2 825.6c19.2 0 32 12.8 32 32s-12.8 32-32 32h-6.4c-64 0-108.8-44.8-108.8-108.8v-672C0 44.8 44.8 0 108.8 0h681.6c57.6 0 102.4 44.8 102.4 108.8v6.4c0 19.2-12.8 32-32 32s-32-12.8-32-32C825.6 89.6 800 64 774.4 64H115.2C89.6 64 64 89.6 64 115.2V768c0 32 25.6 57.6 51.2 57.6z" fill="#329cd3" p-id="11612" data-spm-anchor-id="a313x.7781069.0.i46" class="selected"></path><path d="M921.6 188.8H304c-64 0-108.8 44.8-108.8 108.8v611.2c0 64 44.8 108.8 108.8 115.2h611.2c64 0 108.8-51.2 108.8-108.8V294.4c0-60.8-44.8-105.6-102.4-105.6z m35.2 118.4v598.4c0 25.6-19.2 51.2-51.2 51.2H313.6c-25.6 0-51.2-25.6-51.2-57.6V307.2C262.4 281.6 288 256 313.6 256h598.4c25.6 0 51.2 25.6 44.8 51.2z" fill="#329cd3" p-id="11613" data-spm-anchor-id="a313x.7781069.0.i45" class="selected"></path><path d="M358.4 627.2s-16-25.6 0-44.8c16-19.2 224-224 224-224s22.4-22.4 48 0l22.4 22.4 201.6 201.6s12.8 22.4-3.2 41.6c-16 19.2-38.4 6.4-48 0-9.6-6.4-166.4-166.4-166.4-166.4v368s0 32-32 32-35.2-32-35.2-32V457.6l-169.6 172.8c3.2 0-19.2 16-41.6-3.2z" fill="#329cd3" p-id="11614" data-spm-anchor-id="a313x.7781069.0.i42" class="selected"></path></svg>