<?xml version="1.0" standalone="no"?><!DOCTYPE svg PUBLIC "-//W3C//DTD SVG 1.1//EN" "http://www.w3.org/Graphics/SVG/1.1/DTD/svg11.dtd"><svg t="1574230742623" class="icon" viewBox="0 0 1024 1024" version="1.1" xmlns="http://www.w3.org/2000/svg" p-id="8373" xmlns:xlink="http://www.w3.org/1999/xlink" width="200" height="200"><defs><style type="text/css"></style></defs><path d="M845.678295 976.404769l-667.245044 0c-65.393426 0-118.57106-53.239035-118.57106-118.632462l0-691.068755c0-65.393426 53.177634-118.57106 118.57106-118.57106l667.245044 0c65.393426 0 118.57106 53.177634 118.57106 118.57106l0 691.068755C964.249355 923.166757 911.071721 976.404769 845.678295 976.404769zM178.433251 78.520004c-48.61961 0-88.183548 39.563939-88.183548 88.183548l0 691.068755c0 48.679988 39.563939 88.24495 88.183548 88.24495l667.245044 0c48.61961 0 88.183548-39.563939 88.183548-88.24495l0-691.068755c0-48.61961-39.563939-88.183548-88.183548-88.183548C845.678295 78.520004 178.433251 78.520004 178.433251 78.520004z" p-id="8374" fill="#1296db"></path><path d="M779.312681 365.92422l-534.574194 0c-45.702024 0-82.957273-37.193848-82.957273-82.896895 0-45.763425 37.193848-82.957273 82.957273-82.957273l534.574194 0c45.763425 0 82.957273 37.193848 82.957273 82.957273C862.269954 328.729349 825.075083 365.92422 779.312681 365.92422zM244.738487 230.457564c-28.989609 0-52.569761 23.580153-52.569761 52.569761 0 28.929231 23.580153 52.509383 52.569761 52.509383l534.574194 0c29.049987 0 52.569761-23.580153 52.569761-52.509383 0-28.989609-23.580153-52.569761-52.569761-52.569761C779.312681 230.457564 244.738487 230.457564 244.738487 230.457564z" p-id="8375" fill="#1296db"></path><path d="M779.312681 595.226415l-534.574194 0c-45.702024 0-82.957273-37.13347-82.957273-82.896895s37.193848-82.957273 82.957273-82.957273l534.574194 0c45.763425 0 82.957273 37.193848 82.957273 82.957273C862.269954 558.092945 825.075083 595.226415 779.312681 595.226415zM244.738487 459.759759c-28.989609 0-52.569761 23.580153-52.569761 52.569761 0 28.929231 23.580153 52.509383 52.569761 52.509383l534.574194 0c29.049987 0 52.569761-23.580153 52.569761-52.509383 0-28.989609-23.580153-52.569761-52.569761-52.569761L244.738487 459.759759z" p-id="8376" fill="#1296db"></path><path d="M779.312681 824.529634l-534.574194 0c-45.702024 0-82.957273-37.193848-82.957273-82.957273s37.193848-82.957273 82.957273-82.957273l534.574194 0c45.763425 0 82.957273 37.193848 82.957273 82.957273S825.075083 824.529634 779.312681 824.529634zM244.738487 689.001577c-28.989609 0-52.569761 23.580153-52.569761 52.569761s23.580153 52.569761 52.569761 52.569761l534.574194 0c29.049987 0 52.569761-23.580153 52.569761-52.569761s-23.519775-52.569761-52.569761-52.569761L244.738487 689.001577z" p-id="8377" fill="#1296db"></path></svg>