<?xml version="1.0" standalone="no"?><!DOCTYPE svg PUBLIC "-//W3C//DTD SVG 1.1//EN" "http://www.w3.org/Graphics/SVG/1.1/DTD/svg11.dtd"><svg t="1574231619733" class="icon" viewBox="0 0 1024 1024" version="1.1" xmlns="http://www.w3.org/2000/svg" p-id="13409" data-spm-anchor-id="a313x.7781069.0.i54" xmlns:xlink="http://www.w3.org/1999/xlink" width="200" height="200"><defs><style type="text/css"></style></defs><path d="M668.16 225.28c56.32 0 102.4 46.08 102.4 102.4s-46.08 102.4-102.4 102.4-102.4-46.08-102.4-102.4 46.08-102.4 102.4-102.4m0-76.8c-99.84 0-179.2 79.36-179.2 179.2s79.36 179.2 179.2 179.2 179.2-79.36 179.2-179.2-79.36-179.2-179.2-179.2zM363.52 545.28H51.2c-17.92 0-33.28-12.8-33.28-30.72v-17.92c0-15.36 15.36-30.72 33.28-30.72h312.32c17.92 0 33.28 12.8 33.28 30.72v17.92c0 17.92-15.36 30.72-33.28 30.72zM363.52 716.8H51.2c-17.92 0-33.28-12.8-33.28-30.72v-17.92C15.36 652.8 33.28 640 51.2 640h312.32c17.92 0 33.28 12.8 33.28 30.72v17.92c0 12.8-15.36 28.16-33.28 28.16z m0 151.04H51.2c-17.92 0-33.28-12.8-33.28-30.72V819.2c0-15.36 15.36-30.72 33.28-30.72h312.32c17.92 0 33.28 12.8 33.28 30.72v17.92c0 15.36-15.36 30.72-33.28 30.72z" p-id="13410" fill="#329cd3"></path><path d="M962.56 865.28c-20.48 0-38.4-17.92-38.4-38.4 0-140.8-115.2-256-256-256s-256 115.2-256 256c0 20.48-17.92 38.4-38.4 38.4s-38.4-17.92-38.4-38.4c0-184.32 148.48-332.8 332.8-332.8s332.8 148.48 332.8 332.8c0 23.04-17.92 38.4-38.4 38.4z" p-id="13411" fill="#329cd3"></path></svg>