<?xml version="1.0" standalone="no"?><!DOCTYPE svg PUBLIC "-//W3C//DTD SVG 1.1//EN" "http://www.w3.org/Graphics/SVG/1.1/DTD/svg11.dtd"><svg t="1574231435678" class="icon" viewBox="0 0 1024 1024" version="1.1" xmlns="http://www.w3.org/2000/svg" p-id="11932" xmlns:xlink="http://www.w3.org/1999/xlink" width="200" height="200"><defs><style type="text/css"></style></defs><path d="M512 784c-17.6 0-32-14.4-32-32v-608h64v608c0 17.6-14.4 32-32 32zM864 960H160c-17.6 0-32-14.4-32-32s14.4-32 32-32h704c17.6 0 32 14.4 32 32s-14.4 32-32 32z" fill="#329cd3" p-id="11933" data-spm-anchor-id="a313x.7781069.0.i49" class="selected"></path><path d="M239.584 380.8c12.8 12.8 32 12.8 44.8 0l227.2-225.6 225.6 225.6c12.8 12.8 32 12.8 44.8 0 12.8-12.8 12.8-32 0-44.8L511.616 64l-272 272c-12.8 12.8-12.8 32 0 44.8z" fill="#329cd3" p-id="11934"></path></svg>