<?xml version="1.0" standalone="no"?><!DOCTYPE svg PUBLIC "-//W3C//DTD SVG 1.1//EN" "http://www.w3.org/Graphics/SVG/1.1/DTD/svg11.dtd"><svg t="1574231074853" class="icon" viewBox="0 0 1036 1024" version="1.1" xmlns="http://www.w3.org/2000/svg" p-id="10136" xmlns:xlink="http://www.w3.org/1999/xlink" width="202.34375" height="200"><defs><style type="text/css"></style></defs><path d="M294.4 352c-19.2 0-32 0-38.4-12.8 0-12.8 0-25.6 12.8-38.4 12.8-19.2 32-38.4 44.8-64 25.6-19.2 38.4-44.8 64-70.4l57.6-76.8c12.8-25.6 32-44.8 44.8-64 12.8-19.2 25.6-25.6 38.4-25.6 12.8 0 25.6 6.4 38.4 19.2 12.8 19.2 32 38.4 44.8 57.6l57.6 76.8 57.6 76.8c19.2 25.6 32 44.8 51.2 64 12.8 19.2 19.2 32 19.2 44.8-6.4 12.8-12.8 19.2-38.4 19.2h-96c-12.8 0-25.6 6.4-25.6 12.8-6.4 6.4-6.4 19.2-6.4 32V640c0 6.4-6.4 12.8-6.4 19.2-6.4 6.4-12.8 12.8-19.2 12.8-6.4 6.4-19.2 6.4-32 6.4H473.6c-25.6 0-38.4-6.4-51.2-19.2-6.4-12.8-12.8-25.6-12.8-51.2v-25.6-51.2V422.4c0-19.2 0-38.4-6.4-51.2 0-6.4-12.8-12.8-25.6-12.8h-38.4c-19.2 0-32-6.4-44.8-6.4zM1024 896c6.4 19.2 6.4 32 0 51.2-6.4 12.8-12.8 32-32 38.4-12.8 12.8-32 19.2-44.8 25.6-19.2 6.4-38.4 12.8-64 12.8H147.2c-25.6 0-51.2-6.4-70.4-12.8s-38.4-19.2-44.8-32c-12.8-12.8-19.2-25.6-25.6-44.8-6.4-12.8-6.4-32 0-44.8 6.4-12.8 6.4-19.2 12.8-32 6.4-6.4 6.4-19.2 12.8-32l19.2-38.4 38.4-96h121.6l-44.8 134.4h697.6l-44.8-134.4h121.6c12.8 38.4 32 70.4 38.4 96 6.4 12.8 12.8 25.6 12.8 38.4 6.4 12.8 12.8 25.6 12.8 32 6.4 6.4 6.4 19.2 12.8 25.6 6.4 6.4 6.4 12.8 6.4 12.8z" fill="#329cd3" p-id="10137" data-spm-anchor-id="a313x.7781069.0.i37" class="selected"></path></svg>